# xmcd
#
# Track frame offsets:
#	150
#	28479
#	111303
#	142691
#	158049
#
# Disc length: 2342 seconds
#
# Revision: 1
# Processed by: cddbd v1.5.2PL0 Copyright (c) Steve Scherf et al.
# Submitted via: audiograbber 1.83.01
#
DISCID=3c092405
DTITLE=Grateful Dead - 71-12-02 Boston Music Hall, Boston MA
DYEAR=1900
DGENRE=
TTITLE0=Not Fade Away
TTITLE1=Turn On Your Lovelight
TTITLE2=Going Down The Road Feeling Bad
TTITLE3=Not Fade Away
TTITLE4=Johnny B Goode
EXTD=
EXTT0=
EXTT1=
EXTT2=
EXTT3=
EXTT4=
PLAYORDER=
